<?xml version="1.0" encoding="utf-8"?>
<svg version="1.1" id="Layer_1" xmlns="http://www.w3.org/2000/svg" xmlns:xlink="http://www.w3.org/1999/xlink" x="0px" y="0px" width="200" height="200"
	 viewBox="0 0 200 200" style="enable-background:new 0 0 200 200;" xml:space="preserve">
<style type="text/css">
	.bg{fill:#1F1E37;}
	.fg{fill:#FFFFFF;}
</style>
<circle class="bg" cx="100" cy="100" r="100"/>
<g class="fg" transform="translate(22.66526 117.49432) scale(0.048654 -0.048654)">
  <path d="M48 0V504H213V428Q235 473 264.0 488.5Q293 504 335 504H388V368H300Q273 368 253.5 354.5Q234 341 223.5 316.0Q213 291 213 255V0Z" transform="translate(0 0)"/>
  <path d="M287 -8Q219 -8 169.5 15.5Q120 39 87.5 77.5Q55 116 39.5 161.5Q24 207 24 252Q24 297 38.0 342.5Q52 388 82.5 426.5Q113 465 161.0 488.5Q209 512 277 512Q349 512 397.5 488.5Q446 465 475.5 427.0Q505 389 518.0 345.5Q531 302 531 262Q531 245 530.5 233.5Q530 222 529 213H120V311H368Q366 343 343.0 369.0Q320 395 277 395Q253 395 234.5 386.0Q216 377 203.5 359.0Q191 341 184.5 315.0Q178 289 178 255Q178 214 190.0 185.0Q202 156 226.0 140.5Q250 125 287 125Q321 125 343.0 137.5Q365 150 372 175H531Q521 119 486.5 78.0Q452 37 400.5 14.5Q349 -8 287 -8Z" transform="translate(399 0)"/>
  <path d="M249 -8Q183 -8 133.0 23.5Q83 55 54.5 113.5Q26 172 26 252Q26 312 42.0 360.0Q58 408 88.0 442.0Q118 476 159.5 494.0Q201 512 252 512Q292.89473684210526 512 327.9473684210526 499.5Q363 487 387 464V728H552V0H387V43Q365 19 329.0 5.5Q293 -8 249 -8ZM291 132Q314 132 333.10526315789474 140.66463414634146Q352.2105263157895 149.3292682926829 366.10526315789474 165.16463414634146Q380 181 387.5 202.81603773584905Q395 224.6320754716981 395 251.75471698113208Q395 306 366.68888888888887 339.0Q338.3777777777778 372 291 372Q267.6261682242991 372 248.81308411214954 363.5Q230 355 215.86301369863014 339.14173228346453Q201.72602739726028 323.2834645669291 194.36301369863014 301.14173228346453Q187 279 187 251.73387096774195Q187 197.79435483870967 216.0 164.89717741935482Q245 132 291 132Z" transform="translate(957 0)"/>
  <path d="M238 -8Q172 -8 124.5 14.0Q77 36 50.5 76.5Q24 117 21 173H160Q164 146 185.5 129.5Q207 113 238 113Q256 113 269.0 117.5Q282 122 289.5 130.0Q297 138 297 149Q297 167 283.0 176.0Q269 185 245.5 189.5Q222 194 194.5 198.5Q167 203 139.0 211.5Q111 220 87.5 236.5Q64 253 50.0 281.5Q36 310 36 355Q36 401 60.0 436.5Q84 472 125.5 492.0Q167 512 220 512Q285 512 331.5 491.0Q378 470 404.0 432.0Q430 394 432 343H292Q290 360 280.0 372.5Q270 385 255.5 392.0Q241 399 224 399Q201 399 186.5 390.0Q172 381 172 361Q172 342 186.5 333.0Q201 324 225.0 320.0Q249 316 277.5 312.5Q306 309 334.0 302.0Q362 295 386.0 279.5Q410 264 424.5 237.0Q439 210 439 165Q439 123 424.5 90.5Q410 58 383.5 36.5Q357 15 320.0 3.5Q283 -8 238 -8Z" transform="translate(1557 0)"/>
  <path d="M287 -8Q219 -8 169.5 15.5Q120 39 87.5 77.5Q55 116 39.5 161.5Q24 207 24 252Q24 297 38.0 342.5Q52 388 82.5 426.5Q113 465 161.0 488.5Q209 512 277 512Q349 512 397.5 488.5Q446 465 475.5 427.0Q505 389 518.0 345.5Q531 302 531 262Q531 245 530.5 233.5Q530 222 529 213H120V311H368Q366 343 343.0 369.0Q320 395 277 395Q253 395 234.5 386.0Q216 377 203.5 359.0Q191 341 184.5 315.0Q178 289 178 255Q178 214 190.0 185.0Q202 156 226.0 140.5Q250 125 287 125Q321 125 343.0 137.5Q365 150 372 175H531Q521 119 486.5 78.0Q452 37 400.5 14.5Q349 -8 287 -8Z" transform="translate(2023 0)"/>
  <path d="M291 -8Q214 -8 153.5 25.5Q93 59 59.0 117.5Q25 176 25 252Q25 309 44.5 356.5Q64 404 100.0 439.0Q136 474 184.5 493.0Q233 512 291 512Q362 512 418.0 485.5Q474 459 508.0 413.0Q542 367 545 307H379Q375 326 363.0 340.5Q351 355 334.0 363.5Q317 372 297 372Q267 372 244.0 357.0Q221 342 208.5 315.5Q196 289 196 252Q196 216 209.0 189.0Q222 162 245.0 147.0Q268 132 299 132Q330 132 353.0 151.0Q376 170 381 198H550Q544 141 507.0 94.0Q470 47 413.5 19.5Q357 -8 291 -8Z" transform="translate(2581 0)"/>
</g>
</svg>
